<svg width="23" height="23" viewBox="0 0 23 23" fill="none" xmlns="http://www.w3.org/2000/svg">
<path d="M10.375 5.875H12.625V8.125H10.375V5.875ZM10.375 10.375H12.625V17.125H10.375V10.375ZM11.5 0.25C5.29 0.25 0.25 5.29 0.25 11.5C0.25 17.71 5.29 22.75 11.5 22.75C17.71 22.75 22.75 17.71 22.75 11.5C22.75 5.29 17.71 0.25 11.5 0.25ZM11.5 20.5C6.53875 20.5 2.5 16.4613 2.5 11.5C2.5 6.53875 6.53875 2.5 11.5 2.5C16.4613 2.5 20.5 6.53875 20.5 11.5C20.5 16.4613 16.4613 20.5 11.5 20.5Z" fill="white"/>
</svg>
