<svg width="70" height="70" viewBox="0 0 70 70" fill="none" xmlns="http://www.w3.org/2000/svg">
<path d="M5.63272 7.10482C29.1225 -2.51119 41.9554 -2.22427 64.3176 7.10482C71.9322 29.4215 71.8559 41.9282 64.3176 64.2448C41.3995 71.8082 28.5506 72.0278 5.63272 64.2448C-1.764 42.6086 -1.99028 30.118 5.63272 7.10482Z" fill="url(#paint0_linear_125_274)"/>
<path d="M26.6445 38.4724L31.4724 33.6445L38.6238 40.7959L42.5183 36.9014L43.2183 50.2183L29.9014 49.5183L33.7959 45.6238L26.6445 38.4724Z" fill="white"/>
<path d="M43.0073 32.0543L38.1794 36.8822L31.028 29.7308L27.1335 33.6253L26.4336 20.3085L39.7505 21.0084L35.8559 24.9029L43.0073 32.0543Z" fill="white"/>
<defs>
<linearGradient id="paint0_linear_125_274" x1="34.9752" y1="13.3902" x2="34.9752" y2="70.5302" gradientUnits="userSpaceOnUse">
<stop stop-color="#068AC9"/>
<stop offset="1" stop-color="#015A9E"/>
</linearGradient>
</defs>
</svg>
